<mxfile host="app.diagrams.net" modified="2024-04-22T02:41:17.614Z" agent="Mozilla/5.0 (Windows NT 10.0; Win64; x64) AppleWebKit/537.36 (KHTML, like Gecko) Chrome/124.0.0.0 Safari/537.36 Edg/124.0.0.0" etag="s4AAb9dsrOIH6mLtgKVz" version="24.2.7" type="github">
  <diagram id="prtHgNgQTEPvFCAcTncT" name="Page-1">
    <mxGraphModel dx="857" dy="392" grid="0" gridSize="10" guides="1" tooltips="1" connect="1" arrows="1" fold="1" page="1" pageScale="1" pageWidth="827" pageHeight="1169" math="0" shadow="0">
      <root>
        <mxCell id="0" />
        <mxCell id="1" parent="0" />
        <mxCell id="HFz4O9YTrMAimBPZ-KiV-11" style="edgeStyle=orthogonalEdgeStyle;rounded=0;orthogonalLoop=1;jettySize=auto;html=1;exitX=0.5;exitY=1;exitDx=0;exitDy=0;" edge="1" parent="1" source="HFz4O9YTrMAimBPZ-KiV-2" target="HFz4O9YTrMAimBPZ-KiV-4">
          <mxGeometry relative="1" as="geometry" />
        </mxCell>
        <mxCell id="HFz4O9YTrMAimBPZ-KiV-2" value="第一章 绪论" style="rounded=1;whiteSpace=wrap;html=1;" vertex="1" parent="1">
          <mxGeometry x="306" y="104" width="120" height="60" as="geometry" />
        </mxCell>
        <mxCell id="HFz4O9YTrMAimBPZ-KiV-12" style="edgeStyle=orthogonalEdgeStyle;rounded=0;orthogonalLoop=1;jettySize=auto;html=1;exitX=0.5;exitY=1;exitDx=0;exitDy=0;entryX=0.5;entryY=0;entryDx=0;entryDy=0;" edge="1" parent="1" source="HFz4O9YTrMAimBPZ-KiV-4" target="HFz4O9YTrMAimBPZ-KiV-8">
          <mxGeometry relative="1" as="geometry" />
        </mxCell>
        <mxCell id="HFz4O9YTrMAimBPZ-KiV-15" style="edgeStyle=orthogonalEdgeStyle;rounded=0;orthogonalLoop=1;jettySize=auto;html=1;exitX=0.5;exitY=1;exitDx=0;exitDy=0;entryX=0.5;entryY=0;entryDx=0;entryDy=0;" edge="1" parent="1" source="HFz4O9YTrMAimBPZ-KiV-4" target="HFz4O9YTrMAimBPZ-KiV-7">
          <mxGeometry relative="1" as="geometry">
            <mxPoint x="269" y="298" as="targetPoint" />
            <Array as="points">
              <mxPoint x="366" y="287" />
              <mxPoint x="167" y="287" />
            </Array>
          </mxGeometry>
        </mxCell>
        <mxCell id="HFz4O9YTrMAimBPZ-KiV-16" style="edgeStyle=orthogonalEdgeStyle;rounded=0;orthogonalLoop=1;jettySize=auto;html=1;exitX=0.5;exitY=1;exitDx=0;exitDy=0;" edge="1" parent="1" source="HFz4O9YTrMAimBPZ-KiV-4" target="HFz4O9YTrMAimBPZ-KiV-9">
          <mxGeometry relative="1" as="geometry">
            <Array as="points">
              <mxPoint x="366" y="287" />
              <mxPoint x="552" y="287" />
            </Array>
          </mxGeometry>
        </mxCell>
        <mxCell id="HFz4O9YTrMAimBPZ-KiV-4" value="第二章 基于IEC61131-3的统一语言转换总体框架&amp;nbsp;" style="rounded=1;whiteSpace=wrap;html=1;" vertex="1" parent="1">
          <mxGeometry x="216" y="207" width="300" height="60" as="geometry" />
        </mxCell>
        <mxCell id="HFz4O9YTrMAimBPZ-KiV-18" style="edgeStyle=orthogonalEdgeStyle;rounded=0;orthogonalLoop=1;jettySize=auto;html=1;" edge="1" parent="1" source="HFz4O9YTrMAimBPZ-KiV-7">
          <mxGeometry relative="1" as="geometry">
            <mxPoint x="304.9310260641164" y="346" as="targetPoint" />
          </mxGeometry>
        </mxCell>
        <mxCell id="HFz4O9YTrMAimBPZ-KiV-20" style="edgeStyle=orthogonalEdgeStyle;rounded=0;orthogonalLoop=1;jettySize=auto;html=1;entryX=0.5;entryY=0;entryDx=0;entryDy=0;" edge="1" parent="1" source="HFz4O9YTrMAimBPZ-KiV-7" target="HFz4O9YTrMAimBPZ-KiV-10">
          <mxGeometry relative="1" as="geometry">
            <Array as="points">
              <mxPoint x="167" y="402" />
              <mxPoint x="366" y="402" />
            </Array>
          </mxGeometry>
        </mxCell>
        <mxCell id="HFz4O9YTrMAimBPZ-KiV-7" value="第三章 统一中间数据模型设计及转换&amp;nbsp;" style="rounded=1;whiteSpace=wrap;html=1;" vertex="1" parent="1">
          <mxGeometry x="107" y="316" width="120" height="60" as="geometry" />
        </mxCell>
        <mxCell id="HFz4O9YTrMAimBPZ-KiV-17" style="edgeStyle=orthogonalEdgeStyle;rounded=0;orthogonalLoop=1;jettySize=auto;html=1;exitX=0.5;exitY=1;exitDx=0;exitDy=0;entryX=0.5;entryY=0;entryDx=0;entryDy=0;" edge="1" parent="1" source="HFz4O9YTrMAimBPZ-KiV-8" target="HFz4O9YTrMAimBPZ-KiV-10">
          <mxGeometry relative="1" as="geometry" />
        </mxCell>
        <mxCell id="HFz4O9YTrMAimBPZ-KiV-19" value="" style="edgeStyle=orthogonalEdgeStyle;rounded=0;orthogonalLoop=1;jettySize=auto;html=1;" edge="1" parent="1" source="HFz4O9YTrMAimBPZ-KiV-8" target="HFz4O9YTrMAimBPZ-KiV-9">
          <mxGeometry relative="1" as="geometry" />
        </mxCell>
        <mxCell id="HFz4O9YTrMAimBPZ-KiV-8" value="第四章 图形化语言识别及转换" style="rounded=1;whiteSpace=wrap;html=1;" vertex="1" parent="1">
          <mxGeometry x="306" y="316" width="120" height="60" as="geometry" />
        </mxCell>
        <mxCell id="HFz4O9YTrMAimBPZ-KiV-21" style="edgeStyle=orthogonalEdgeStyle;rounded=0;orthogonalLoop=1;jettySize=auto;html=1;" edge="1" parent="1" source="HFz4O9YTrMAimBPZ-KiV-9">
          <mxGeometry relative="1" as="geometry">
            <mxPoint x="366.17239695581907" y="428.82759462553884" as="targetPoint" />
            <Array as="points">
              <mxPoint x="552" y="402" />
              <mxPoint x="366" y="402" />
            </Array>
          </mxGeometry>
        </mxCell>
        <mxCell id="HFz4O9YTrMAimBPZ-KiV-9" value="第五章 语言转换框架实验验证" style="rounded=1;whiteSpace=wrap;html=1;" vertex="1" parent="1">
          <mxGeometry x="492" y="316" width="120" height="60" as="geometry" />
        </mxCell>
        <mxCell id="HFz4O9YTrMAimBPZ-KiV-10" value="第六章 总结与展望" style="rounded=1;whiteSpace=wrap;html=1;" vertex="1" parent="1">
          <mxGeometry x="289" y="429" width="154" height="60" as="geometry" />
        </mxCell>
      </root>
    </mxGraphModel>
  </diagram>
</mxfile>
